#N canvas 401 313 450 300 10;
#X obj 140 116 noise~;
#X obj 130 142 snapshot~;
#X obj 130 165 * 0.5;
#X obj 130 187 + 0.5;
#X text 137 54 slightly better random;
#X obj 130 85 inlet bang;
#X text 171 185 sets 0 to 1;
#X text 163 209 scaling;
#X obj 130 209 * \$1;
#X obj 210 85 inlet scaling;
#X obj 130 231 int;
#X obj 130 253 outlet;
#X text 157 231 drop decimal;
#X connect 0 0 1 0;
#X connect 1 0 2 0;
#X connect 2 0 3 0;
#X connect 3 0 8 0;
#X connect 5 0 1 0;
#X connect 8 0 10 0;
#X connect 9 0 8 1;
#X connect 10 0 11 0;
