#N canvas 134 121 1062 691 10;
#X obj 142 50 inlet~;
#X msg 713 325 44100;
#X obj 713 346 / 1;
#X obj 602 402 samphold~;
#X obj 713 367 phasor~;
#X text 598 37 downsampler;
#X msg 237 207 2;
#X obj 237 228 pow 8;
#X obj 237 249 - 1;
#X floatatom 253 284 5 0 0 0 - - -;
#X floatatom 237 166 5 0 0 0 - - -;
#X obj 142 251 *~ 0.5;
#X obj 142 272 +~ 0.5;
#X obj 142 353 *~;
#X obj 157 327 sig~;
#X obj 157 374 wrap~;
#X obj 142 395 -~;
#X obj 142 456 /~;
#X obj 157 436 sig~;
#X obj 142 477 *~ 2;
#X obj 142 498 -~ 1;
#X obj 237 186 t b f;
#X obj 142 540 outlet~;
#X obj 237 56 inlet bits;
#X obj 237 124 min 24;
#X obj 237 145 max 1;
#X obj 701 81 inlet downsampling;
#X obj 713 287 t b f;
#X obj 253 79 loadbang;
#X obj 253 100 \$1;
#X obj 750 137 loadbang;
#X obj 750 158 \$2;
#X obj 497 452 *~;
#X obj 637 511 *~;
#X obj 512 421 line~;
#X obj 653 476 line~;
#X obj 653 455 pack f 30;
#X obj 512 400 pack f 30;
#X obj 713 249 int;
#X obj 713 198 max 1;
#X obj 512 379 == 1;
#X obj 653 430 != 1;
#X obj 142 519 hip~ 5;
#X obj 502 72 inlet~;
#X obj 497 585 outlet~;
#X obj 497 564 hip~ 5;
#X obj 713 224 min 40;
#X text 181 17 bitcrusher;
#X text 732 62 1x to 40x;
#X text 238 35 1 to 24 bits;
#N canvas 0 22 450 278 (subpatch) 0;
#X array array-\$0 100 float 0;
#X coords 0 1 100 -1 83 58 1 0 0;
#X restore 328 455 graph;
#X obj 324 638 tabwrite~ array-\$0;
#X msg 354 589 1;
#X obj 354 610 metro 200;
#X obj 354 565 loadbang;
#X text 375 16 arguments: bit-depth \, downsample amount;
#X connect 0 0 11 0;
#X connect 1 0 2 0;
#X connect 2 0 4 0;
#X connect 3 0 33 0;
#X connect 4 0 3 1;
#X connect 6 0 7 0;
#X connect 7 0 8 0;
#X connect 8 0 9 0;
#X connect 8 0 14 0;
#X connect 8 0 18 0;
#X connect 10 0 21 0;
#X connect 11 0 12 0;
#X connect 12 0 13 0;
#X connect 13 0 15 0;
#X connect 13 0 16 0;
#X connect 14 0 13 1;
#X connect 15 0 16 1;
#X connect 16 0 17 0;
#X connect 17 0 19 0;
#X connect 18 0 17 1;
#X connect 19 0 20 0;
#X connect 20 0 42 0;
#X connect 21 0 6 0;
#X connect 21 1 7 1;
#X connect 23 0 24 0;
#X connect 24 0 25 0;
#X connect 25 0 10 0;
#X connect 26 0 39 0;
#X connect 27 0 1 0;
#X connect 27 1 2 1;
#X connect 28 0 29 0;
#X connect 29 0 24 0;
#X connect 30 0 31 0;
#X connect 31 0 39 0;
#X connect 32 0 45 0;
#X connect 33 0 45 0;
#X connect 34 0 32 1;
#X connect 35 0 33 1;
#X connect 36 0 35 0;
#X connect 37 0 34 0;
#X connect 38 0 27 0;
#X connect 38 0 40 0;
#X connect 38 0 41 0;
#X connect 39 0 46 0;
#X connect 40 0 37 0;
#X connect 41 0 36 0;
#X connect 42 0 22 0;
#X connect 42 0 51 0;
#X connect 43 0 3 0;
#X connect 43 0 32 0;
#X connect 45 0 44 0;
#X connect 45 0 51 0;
#X connect 46 0 38 0;
#X connect 52 0 53 0;
#X connect 53 0 51 0;
#X connect 54 0 52 0;
#X coords 0 691 1 690 85 60 0;
