#N canvas 0 22 450 300 10;
#N canvas 0 22 450 278 (subpatch) 0;
#X array \$0-spectrum 1000 float 0;
#X coords 0 1 999 -1 100 70 1 0 0;
#X restore 193 207 graph;
#X obj 58 10 inlet~;
#X floatatom 261 189 5 0 0 0 - - -;
#X obj 156 34 loadbang;
#X msg 156 56 1;
#X obj 156 78 metro 200;
#X obj 261 137 env~ 8192;
#X obj 193 189 cnv 15 65 15 empty empty empty 20 12 0 14 -262144 -66577
0;
#X obj 58 182 tabwrite~ \$0-spectrum;
#X connect 1 0 6 0;
#X connect 1 0 8 0;
#X connect 3 0 4 0;
#X connect 4 0 5 0;
#X connect 5 0 8 0;
#X connect 6 0 2 0;
#X coords 0 -1 1 1 107 100 2 190 185;
