#N canvas 0 23 824 697 10;
#X obj 113 80 key;
#X floatatom 113 152 5 0 0 0 - - -;
#X obj 379 86 keyup;
#X floatatom 379 158 5 0 0 0 - - -;
#X msg 113 200 60;
#X msg 143 200 62;
#X msg 173 200 64;
#X msg 203 200 65;
#X msg 233 200 67;
#X msg 263 200 69;
#X msg 293 200 71;
#X msg 323 200 72;
#X obj 113 178 sel 97 115 100 102 103 104 106 107;
#X obj 113 232 s \$0-keydown;
#X obj 73 493 r \$0-keydown;
#X obj 153 493 r \$0-keyup;
#X msg 379 201 60;
#X msg 409 201 62;
#X msg 439 201 64;
#X msg 469 201 65;
#X msg 499 201 67;
#X msg 529 201 69;
#X msg 559 201 71;
#X msg 589 201 72;
#X obj 379 179 sel 97 115 100 102 103 104 106 107;
#X obj 379 233 s \$0-keyup;
#X obj 73 581 outlet note;
#X obj 193 581 outlet vel;
#X obj 153 515 t f b;
#X msg 241 549 0;
#X obj 73 519 t f b;
#X obj 113 102 spigot;
#X obj 379 108 spigot;
#X obj 178 32 inlet on/off;
#X obj 165 350 s \$0-keydown;
#X text 23 179 white keys >;
#X obj 165 296 sel 119 101 116 121 117;
#X msg 165 318 61;
#X msg 195 318 63;
#X msg 225 318 66;
#X msg 255 318 68;
#X msg 285 318 70;
#X text 58 295 black keys >;
#X obj 370 297 sel 119 101 116 121 117;
#X msg 370 319 61;
#X msg 400 319 63;
#X msg 430 319 66;
#X msg 460 319 68;
#X msg 490 319 70;
#X obj 370 351 s \$0-keyup;
#X obj 445 413 loadbang;
#X obj 193 547 f 100;
#X obj 445 434 f \$1;
#X obj 445 505 spigot;
#X floatatom 445 526 5 0 0 0 - - -;
#X obj 445 455 t f f;
#X obj 478 485 > 0;
#X connect 0 0 31 0;
#X connect 1 0 12 0;
#X connect 1 0 36 0;
#X connect 2 0 32 0;
#X connect 3 0 24 0;
#X connect 3 0 43 0;
#X connect 4 0 13 0;
#X connect 5 0 13 0;
#X connect 6 0 13 0;
#X connect 7 0 13 0;
#X connect 8 0 13 0;
#X connect 9 0 13 0;
#X connect 10 0 13 0;
#X connect 11 0 13 0;
#X connect 12 0 4 0;
#X connect 12 1 5 0;
#X connect 12 2 6 0;
#X connect 12 3 7 0;
#X connect 12 4 8 0;
#X connect 12 5 9 0;
#X connect 12 6 10 0;
#X connect 12 7 11 0;
#X connect 14 0 30 0;
#X connect 15 0 28 0;
#X connect 16 0 25 0;
#X connect 17 0 25 0;
#X connect 18 0 25 0;
#X connect 19 0 25 0;
#X connect 20 0 25 0;
#X connect 21 0 25 0;
#X connect 22 0 25 0;
#X connect 23 0 25 0;
#X connect 24 0 16 0;
#X connect 24 1 17 0;
#X connect 24 2 18 0;
#X connect 24 3 19 0;
#X connect 24 4 20 0;
#X connect 24 5 21 0;
#X connect 24 6 22 0;
#X connect 24 7 23 0;
#X connect 28 0 26 0;
#X connect 28 1 29 0;
#X connect 29 0 27 0;
#X connect 30 0 26 0;
#X connect 30 1 51 0;
#X connect 31 0 1 0;
#X connect 32 0 3 0;
#X connect 33 0 31 1;
#X connect 33 0 32 1;
#X connect 36 0 37 0;
#X connect 36 1 38 0;
#X connect 36 2 39 0;
#X connect 36 3 40 0;
#X connect 36 4 41 0;
#X connect 37 0 34 0;
#X connect 38 0 34 0;
#X connect 39 0 34 0;
#X connect 40 0 34 0;
#X connect 41 0 34 0;
#X connect 43 0 44 0;
#X connect 43 1 45 0;
#X connect 43 2 46 0;
#X connect 43 3 47 0;
#X connect 43 4 48 0;
#X connect 44 0 49 0;
#X connect 45 0 49 0;
#X connect 46 0 49 0;
#X connect 47 0 49 0;
#X connect 48 0 49 0;
#X connect 50 0 52 0;
#X connect 51 0 27 0;
#X connect 52 0 55 0;
#X connect 53 0 54 0;
#X connect 53 0 51 1;
#X connect 55 0 53 0;
#X connect 55 1 56 0;
#X connect 56 0 53 1;
