#N canvas 0 22 868 703 10;
#X floatatom 75 437 5 0 0 0 - - -;
#X obj 75 456 mtof;
#X obj 75 478 osc~;
#X obj 75 600 *~;
#X obj 75 622 dac~;
#N canvas 0 22 450 278 (subpatch) 0;
#X array scale 5 float 3;
#A 0 67 69 72 74 76;
#X coords 0 76 4 67 200 140 1 0 0;
#X restore 448 88 graph;
#X msg 504 35 \; scale 0 67 69 72 74 76;
#X floatatom 194 462 5 0 0 0 - - -;
#X obj 194 214 sel 0 1 2 3 4;
#X obj 194 236 bng 15 250 50 0 empty empty empty 17 7 0 10 -262144
-1 -1;
#X obj 214 236 bng 15 250 50 0 empty empty empty 17 7 0 10 -262144
-1 -1;
#X obj 234 236 bng 15 250 50 0 empty empty empty 17 7 0 10 -262144
-1 -1;
#X obj 254 236 bng 15 250 50 0 empty empty empty 17 7 0 10 -262144
-1 -1;
#X obj 274 236 bng 15 250 50 0 empty empty empty 17 7 0 10 -262144
-1 -1;
#X obj 111 555 vline~;
#X msg 111 533 0 \, 0.7 20 \, 0 20 200;
#X obj 194 268 random 2;
#X msg 194 312 0;
#X msg 233 312 2;
#X obj 274 269 random 4;
#X obj 194 290 sel 0 1;
#X obj 274 291 sel 0 1 2 3;
#X obj 404 269 random 4;
#X obj 404 291 sel 0 1 2 3;
#X msg 274 313 1;
#X msg 304 313 2;
#X msg 334 313 3;
#X msg 364 313 4;
#X msg 404 313 0;
#X msg 434 313 1;
#X msg 464 313 2;
#X msg 494 313 3;
#X obj 534 268 random 2;
#X msg 534 312 0;
#X obj 534 290 sel 0 1;
#X msg 573 312 4;
#X obj 614 290 sel 0 1 2;
#X msg 673 312 4;
#X msg 614 312 0;
#X msg 643 312 3;
#X obj 614 268 random 3;
#X obj 194 481 t f b;
#X obj 194 176 f;
#X text 221 178 < store previous state;
#X obj 194 380 s note;
#X obj 194 417 r note;
#X obj 194 439 tabread scale;
#X obj 333 109 loadbang;
#X obj 333 131 random 5;
#X obj 194 89 bng 15 250 50 0 empty empty empty 17 7 0 10 -262144 -1
-1;
#X obj 209 122 r note;
#X floatatom 219 144 5 0 0 0 - - -;
#X floatatom 204 198 5 0 0 0 - - -;
#X connect 0 0 1 0;
#X connect 1 0 2 0;
#X connect 2 0 3 0;
#X connect 3 0 4 0;
#X connect 3 0 4 1;
#X connect 7 0 41 0;
#X connect 8 0 9 0;
#X connect 8 1 10 0;
#X connect 8 2 11 0;
#X connect 8 3 12 0;
#X connect 8 4 13 0;
#X connect 9 0 16 0;
#X connect 10 0 19 0;
#X connect 11 0 22 0;
#X connect 12 0 32 0;
#X connect 13 0 40 0;
#X connect 14 0 3 1;
#X connect 15 0 14 0;
#X connect 16 0 20 0;
#X connect 17 0 44 0;
#X connect 18 0 44 0;
#X connect 19 0 21 0;
#X connect 20 0 17 0;
#X connect 20 1 18 0;
#X connect 21 0 24 0;
#X connect 21 1 25 0;
#X connect 21 2 26 0;
#X connect 21 3 27 0;
#X connect 22 0 23 0;
#X connect 23 0 28 0;
#X connect 23 1 29 0;
#X connect 23 2 30 0;
#X connect 23 3 31 0;
#X connect 24 0 44 0;
#X connect 25 0 44 0;
#X connect 26 0 44 0;
#X connect 27 0 44 0;
#X connect 28 0 44 0;
#X connect 29 0 44 0;
#X connect 30 0 44 0;
#X connect 31 0 44 0;
#X connect 32 0 34 0;
#X connect 33 0 44 0;
#X connect 34 0 33 0;
#X connect 34 1 35 0;
#X connect 35 0 44 0;
#X connect 36 0 38 0;
#X connect 36 1 39 0;
#X connect 36 2 37 0;
#X connect 37 0 44 0;
#X connect 38 0 44 0;
#X connect 39 0 44 0;
#X connect 40 0 36 0;
#X connect 41 0 0 0;
#X connect 41 1 15 0;
#X connect 42 0 8 0;
#X connect 42 0 52 0;
#X connect 45 0 46 0;
#X connect 46 0 7 0;
#X connect 47 0 48 0;
#X connect 48 0 42 1;
#X connect 49 0 42 0;
#X connect 50 0 42 1;
#X connect 50 0 51 0;
