#N canvas 60 33 551 417 10;
#X obj 301 191 cos~;
#X floatatom 186 99 5 0 0 0 - - -;
#X obj 301 169 sig~;
#X obj 231 191 cos~;
#X obj 231 169 sig~;
#X obj 161 191 cos~;
#X obj 161 169 sig~;
#X obj 162 147 + 0.75;
#X obj 91 191 cos~;
#X obj 91 169 sig~;
#X obj 301 147 + 0.5;
#X obj 231 147 + 0.25;
#X obj 91 215 clip~ 0 1;
#X obj 161 215 clip~ 0 1;
#X obj 231 215 clip~ 0 1;
#X obj 301 215 clip~ 0 1;
#X obj 76 72 inlet~;
#X obj 76 254 *~;
#X obj 146 254 *~;
#X obj 216 254 *~;
#X obj 286 254 *~;
#X obj 76 297 outlet~;
#X obj 146 297 outlet~;
#X obj 216 297 outlet~;
#X obj 286 297 outlet~;
#X text 76 319 front L;
#X text 145 318 front R;
#X text 213 316 rear L;
#X text 283 317 rear R;
#X obj 186 74 inlet;
#X text 253 32 0 = front L \; 0.125 = front center \; 0.25 = front
R \; 0.5 = rear R \; 0.75 = rear L \; 0 to 1 = clockwise revolution
(1 2 4 3) \;;
#X obj 387 197 \$1;
#X obj 384 175 loadbang;
#X floatatom 389 235 5 0 0 0 - - -;
#X floatatom 432 241 5 0 0 0 - - -;
#X obj 430 203 \$2;
#X connect 0 0 15 0;
#X connect 1 0 10 0;
#X connect 1 0 11 0;
#X connect 1 0 7 0;
#X connect 1 0 9 0;
#X connect 2 0 0 0;
#X connect 3 0 14 0;
#X connect 4 0 3 0;
#X connect 5 0 13 0;
#X connect 6 0 5 0;
#X connect 7 0 6 0;
#X connect 8 0 12 0;
#X connect 9 0 8 0;
#X connect 10 0 2 0;
#X connect 11 0 4 0;
#X connect 12 0 17 1;
#X connect 13 0 18 1;
#X connect 14 0 19 1;
#X connect 15 0 20 1;
#X connect 16 0 17 0;
#X connect 16 0 18 0;
#X connect 16 0 19 0;
#X connect 16 0 20 0;
#X connect 17 0 21 0;
#X connect 18 0 22 0;
#X connect 19 0 23 0;
#X connect 20 0 24 0;
#X connect 29 0 1 0;
#X connect 31 0 33 0;
#X connect 32 0 31 0;
#X connect 32 0 35 0;
#X connect 35 0 34 0;
