#N canvas 278 26 1002 652 10;
#X obj 374 291 qlist;
#X msg 81 167 read \$1 cr;
#X msg 61 197 rewind;
#X floatatom 288 322 5 0 0 0 - - -;
#X obj 374 445 t b f;
#X msg 324 213 next;
#X text 40 29 text file name;
#X obj 374 472 delay;
#X obj 374 318 route float list;
#X obj 374 505 spigot;
#X obj 420 367 t l b;
#X obj 324 161 t b b;
#X msg 351 188 1;
#X obj 424 481 tgl 15 0 empty empty empty 17 7 0 10 -262144 -1 -1 0
1;
#X text 325 24 next;
#X msg 447 392 0;
#X obj 506 521 print cue;
#X msg 420 391 \$2;
#X msg 662 372 next 1;
#X text 662 40 advance to cue;
#X obj 702 344 sel;
#X msg 744 372 0;
#X obj 662 344 until;
#X msg 662 313 500;
#X obj 324 48 inlet;
#X obj 662 61 inlet;
#X text 46 530 ----- text file lines ----- \; rehearsal section: 0
1 \; measure # in section: 0 0.2 \; everything else: delay time \;
;
#X obj 42 50 inlet;
#X obj 42 117 t b b s;
#X obj 662 281 t b f b b;
#X obj 355 108 bng 15 250 50 0 empty empty empty 17 7 0 10 -262144
-1 -1;
#X connect 0 0 3 0;
#X connect 0 0 8 0;
#X connect 1 0 0 0;
#X connect 2 0 0 0;
#X connect 4 0 7 0;
#X connect 4 1 7 1;
#X connect 5 0 0 0;
#X connect 7 0 9 0;
#X connect 8 0 4 0;
#X connect 8 1 10 0;
#X connect 9 0 5 0;
#X connect 10 0 17 0;
#X connect 10 1 15 0;
#X connect 11 0 5 0;
#X connect 11 1 12 0;
#X connect 12 0 13 0;
#X connect 13 0 9 1;
#X connect 15 0 13 0;
#X connect 17 0 20 0;
#X connect 18 0 0 0;
#X connect 20 0 22 1;
#X connect 21 0 13 0;
#X connect 22 0 18 0;
#X connect 23 0 22 0;
#X connect 24 0 11 0;
#X connect 25 0 29 0;
#X connect 27 0 28 0;
#X connect 28 0 11 0;
#X connect 28 1 2 0;
#X connect 28 2 1 0;
#X connect 29 0 23 0;
#X connect 29 1 20 1;
#X connect 29 2 2 0;
#X connect 29 3 21 0;
#X connect 30 0 11 0;
