#N canvas 0 23 601 450 10;
#X obj 96 208 random;
#X text 198 29 arg: min max;
#X obj 218 80 loadbang;
#X obj 218 102 t b b;
#X obj 218 124 f \$1;
#X obj 218 146 -;
#X obj 258 124 f \$2;
#X obj 218 168 abs;
#X obj 96 259 +;
#X obj 96 280 outlet;
#X obj 96 70 inlet bang;
#X connect 0 0 8 0;
#X connect 2 0 3 0;
#X connect 3 0 4 0;
#X connect 3 1 6 0;
#X connect 4 0 5 0;
#X connect 4 0 8 1;
#X connect 5 0 7 0;
#X connect 6 0 5 1;
#X connect 7 0 0 1;
#X connect 8 0 9 0;
#X connect 10 0 0 0;
