#N canvas 513 135 619 304 10;
#X obj 81 215 writesf~ 2;
#X obj 241 53 inlet start/stop;
#X obj 241 75 route start stop;
#X msg 241 97 start;
#X msg 251 117 stop;
#X obj 81 54 inlet~;
#X obj 138 54 inlet~;
#X msg 334 120 open \$1;
#X obj 334 99 symbol;
#X connect 1 0 2 0;
#X connect 2 0 3 0;
#X connect 2 1 4 0;
#X connect 2 2 8 0;
#X connect 3 0 0 0;
#X connect 4 0 0 0;
#X connect 5 0 0 0;
#X connect 6 0 0 1;
#X connect 7 0 0 0;
#X connect 8 0 7 0;
