#N canvas 360 22 905 700 12;
#X obj 37 20 inlet~;
#X obj 99 503 loadbang;
#X msg 103 524 1;
#X obj 106 61 outlet~;
#X obj 37 307 rfft~;
#X obj 37 340 *~;
#X obj 68 340 *~;
#X obj 37 370 sqrt~;
#X obj 37 396 biquad~ 0 0 0 0 1;
#X obj 291 339 samplerate~;
#X obj 291 316 bng 18 250 50 0 empty empty empty 0 -6 0 8 -262144 -1
-1;
#X floatatom 291 396 5 0 0 0 - - -;
#X obj 291 372 / 256;
#X obj 291 292 loadbang;
#X floatatom 291 475 5 0 0 0 - - -;
#X obj 299 418 s fundamental;
#X obj 291 441 ftom;
#X text 347 474 <-just out of curiosity \, here's the pitch;
#X obj 536 443 block~ 4096 1;
#X obj 37 599 tabwrite~ \$0-spectrum;
#X obj 56 428 r \$0-gain;
#X obj 56 452 + 100;
#X obj 56 476 dbtorms;
#X obj 37 505 *~;
#N canvas 0 22 462 312 (subpatch) 0;
#X array \$0-spectrum 2048 float 0;
#X coords 0 1500 2047 -40 490 130 1 0 0;
#X restore 106 129 graph;
#X obj 356 557 loadbang;
#X obj 357 590 \$1;
#X obj 357 631 s \$0-gainset;
#X obj 568 106 cnv 10 26 15 empty empty empty 20 12 0 14 -262144 -66577
0;
#X text 500 106 gain dB:;
#X floatatom 568 106 3 -90 30 0 - #0-gainset #0-gain;
#X text 103 258 0Hz;
#X obj 104 103 cnv 10 100 25 empty empty empty 20 12 0 14 -262144 -66577
0;
#X text 553 258 22kHz;
#X text 186 258 4410Hz;
#X text 281 258 8820Hz;
#X text 375 258 13230Hz;
#X text 474 258 17640Hz;
#X obj 102 561 metro 100;
#X connect 0 0 3 0;
#X connect 0 0 4 0;
#X connect 1 0 2 0;
#X connect 2 0 38 0;
#X connect 4 0 5 0;
#X connect 4 0 5 1;
#X connect 4 1 6 0;
#X connect 4 1 6 1;
#X connect 5 0 7 0;
#X connect 6 0 7 0;
#X connect 7 0 8 0;
#X connect 8 0 23 0;
#X connect 9 0 12 0;
#X connect 10 0 9 0;
#X connect 11 0 15 0;
#X connect 11 0 16 0;
#X connect 12 0 11 0;
#X connect 13 0 10 0;
#X connect 16 0 14 0;
#X connect 20 0 21 0;
#X connect 21 0 22 0;
#X connect 22 0 23 1;
#X connect 23 0 19 0;
#X connect 25 0 26 0;
#X connect 26 0 27 0;
#X connect 38 0 19 0;
#X coords 0 -1 1 1 500 180 2 100 100;
