#N canvas 174 81 350 273 10;
#X obj 68 29 inlet freq;
#X obj 68 50 phasor~;
#X obj 68 141 min~;
#X obj 89 92 *~ -1;
#X obj 89 113 +~ 1;
#X obj 68 162 -~ 0.25;
#X obj 68 183 *~ 4;
#X obj 68 204 outlet~;
#X obj 170 30 inlet phase;
#X connect 0 0 1 0;
#X connect 1 0 2 0;
#X connect 1 0 3 0;
#X connect 2 0 5 0;
#X connect 3 0 4 0;
#X connect 4 0 2 1;
#X connect 5 0 6 0;
#X connect 6 0 7 0;
#X connect 8 0 1 1;
