#N canvas 773 229 475 343 10;
#X declare -path ../;
#X obj 31 31 declare -path ../;
#X obj 95 139 tgl 15 0 empty empty empty 17 7 0 10 -262144 -1 -1 0
1;
#X floatatom 95 194 5 0 0 0 - - -;
#X floatatom 170 233 5 0 0 0 - - -;
#X text 121 137 < on/off;
#X text 134 195 < note;
#X text 209 234 < velocity;
#X text 182 170 < optional arg sets velocity;
#X text 101 57 --- this uses computer keyboard as musical keyboard
---;
#X text 142 77 chromatic 1-oct scale: AWSEDFTGYHUJK;
#X obj 95 173 keynotein 120;
#X connect 1 0 10 0;
#X connect 10 0 2 0;
#X connect 10 1 3 0;
#X coords 0 343 1 342 107 100 0;
