#N canvas 702 231 671 511 10;
#X declare -path ../;
#X obj 55 61 declare -path ../;
#X obj 283 61 loadbang;
#X msg 283 82 \; pd dsp 1 \;;
#X floatatom 132 149 5 0 0 0 - - -;
#X obj 132 230 spectrum~;
#X obj 132 200 phasor~ 440;
#X connect 1 0 2 0;
#X connect 3 0 5 0;
#X connect 5 0 4 0;
#X coords 0 511 1 510 107 100 0;
